<svg width="99" height="21" viewBox="0 0 99 21" fill="none" xmlns="http://www.w3.org/2000/svg">
<path fill-rule="evenodd" clip-rule="evenodd" d="M88.8744 11.5541C88.93 10.7074 89.1843 9.9876 89.6367 9.39416C90.0883 8.80009 90.7673 8.50347 91.6702 8.50347C92.6874 8.50347 93.4078 8.80009 93.8315 9.39416C94.2552 9.9876 94.467 10.7074 94.467 11.5541H88.8744ZM99 13.5033C99 12.4014 98.8726 11.3571 98.6178 10.3682C98.365 9.3798 97.9403 8.51176 97.3468 7.76282C96.7543 7.01383 95.9908 6.41451 95.0585 5.96264C94.1272 5.51095 92.9836 5.2848 91.6277 5.2848C90.4973 5.2848 89.4523 5.45421 88.4936 5.79341C87.5326 6.13106 86.706 6.62575 86.0148 7.27556C85.3217 7.92506 84.7857 8.72312 84.4041 9.66956C84.0224 10.616 83.8323 11.6958 83.8323 12.9104C83.8323 14.125 84.0447 15.2051 84.4673 16.1518C84.8909 17.0981 85.4839 17.9034 86.2473 18.5665C87.0088 19.2307 87.9066 19.7317 88.937 20.0709C89.9685 20.4085 91.0907 20.5789 92.3051 20.5789C94.283 20.5789 96.0763 20.2684 97.686 19.6468V16.088C96.9231 16.4835 96.1611 16.7729 95.3983 16.9564C94.6358 17.1396 93.9013 17.232 93.1954 17.232C91.9533 17.232 90.9644 17.0127 90.2297 16.5758C89.4953 16.1378 89.0574 15.4107 88.9173 14.3936H99V13.5033ZM80.9222 12.2152C80.3262 11.9032 79.6673 11.6702 78.9433 11.5131C78.2199 11.3571 77.5611 11.2165 76.9651 11.0875C76.369 10.9597 75.865 10.8037 75.455 10.62C75.0424 10.4349 74.8366 10.1441 74.8366 9.74709C74.8366 9.32164 75.0712 9.03126 75.5384 8.87477C76.0066 8.71867 76.5394 8.64114 77.1365 8.64114C77.9575 8.64114 78.8029 8.73946 79.6673 8.93839C80.5334 9.13731 81.2498 9.39267 81.816 9.70409L82.1998 6.08663C81.8874 5.94543 81.2428 5.76816 80.2629 5.55494C79.2857 5.34209 78.142 5.23592 76.8377 5.23592C75.958 5.23592 75.1136 5.32737 74.3047 5.51249C73.4959 5.69651 72.7799 5.98745 72.1551 6.3853C71.5312 6.78229 71.0347 7.28546 70.6662 7.89524C70.296 8.50588 70.1126 9.23606 70.1126 10.0878C70.1126 10.9671 70.3036 11.6775 70.6879 12.2152C71.0701 12.7554 71.559 13.1742 72.1551 13.4713C72.7517 13.7695 73.3826 14.003 74.049 14.1733C74.7173 14.3433 75.3468 14.5066 75.9434 14.6626C76.5394 14.8187 77.0282 15.0038 77.411 15.2166C77.7952 15.4289 77.9853 15.734 77.9853 16.131C77.9854 16.3868 77.9095 16.5857 77.7533 16.7278C77.5966 16.87 77.412 16.9822 77.1992 17.0675C76.9864 17.1531 76.7452 17.2023 76.4752 17.2167C76.2048 17.231 75.9716 17.2383 75.7734 17.2383C74.7799 17.2383 73.8002 17.1179 72.8365 16.8775C71.8719 16.6346 71.0918 16.3868 70.4958 16.131L70.1974 19.748C70.9634 20.0043 71.8215 20.2102 72.7733 20.3661C73.7239 20.5216 74.8083 20.6001 76.0292 20.6001C76.9368 20.6001 77.8165 20.536 78.6679 20.4091C79.5183 20.2807 80.271 20.0319 80.9237 19.6646C81.576 19.2953 82.0936 18.806 82.4768 18.1958C82.8601 17.586 83.0516 16.7847 83.0516 15.7907C83.0516 14.8542 82.8465 14.1028 82.4344 13.535C82.0228 12.9677 81.5192 12.5282 80.9222 12.2152ZM12.277 9.6617C11.5823 9.23606 10.8383 8.90974 10.0443 8.68216C9.24949 8.45557 8.50396 8.23629 7.80979 8.02307C7.114 7.81084 6.53987 7.56977 6.08577 7.29975C5.63142 7.0306 5.40483 6.62575 5.40483 6.08663C5.40483 5.66099 5.51194 5.32093 5.7233 5.0657C5.93652 4.81028 6.19924 4.61822 6.51078 4.49082C6.82319 4.36199 7.15602 4.27859 7.51155 4.23558C7.86554 4.19363 8.19873 4.17142 8.51188 4.17142C9.447 4.17142 10.305 4.27116 11.0866 4.46966C11.8667 4.66772 12.5974 4.92394 13.2782 5.23592L13.6189 1.14982C12.9661 0.922245 12.1722 0.716882 11.2362 0.533299C10.2991 0.348974 9.22183 0.255233 8.00185 0.255233C7.14865 0.255233 6.25444 0.354975 5.32044 0.553471C4.38334 0.752399 3.51728 1.08572 2.72336 1.55467C1.92895 2.02269 1.2753 2.64639 0.764712 3.42688C0.254801 4.20694 0 5.19353 0 6.3853C0 7.57621 0.225163 8.5271 0.680314 9.23606C1.13361 9.94558 1.70929 10.5128 2.4039 10.9384C3.09857 11.3641 3.84317 11.6983 4.63802 11.9398C5.43249 12.1807 6.17845 12.4147 6.87306 12.6413C7.56785 12.869 8.14354 13.1524 8.59671 13.493C9.05001 13.8326 9.27715 14.3017 9.27715 14.8966C9.27715 15.2946 9.18632 15.6136 9.00156 15.8555C8.81643 16.096 8.57592 16.2806 8.27725 16.408C7.97901 16.5364 7.63938 16.6212 7.25576 16.6632C6.87306 16.7062 6.46927 16.7278 6.04215 16.7278C4.9649 16.7278 3.96414 16.599 3.04239 16.3447C2.12101 16.089 1.31917 15.777 0.637435 15.4081L0.169785 19.748C1.0502 20.0319 2.02028 20.2461 3.08477 20.3873C4.14871 20.5297 5.13469 20.6001 6.04215 20.6001C7.12143 20.6001 8.17807 20.5079 9.21397 20.3237C10.2493 20.1395 11.171 19.8058 11.9811 19.323C12.7894 18.841 13.4412 18.1883 13.9384 17.3653C14.4335 16.5428 14.6833 15.493 14.6833 14.2153C14.6833 13.0245 14.4563 12.0735 14.0016 11.3641C13.5483 10.655 12.973 10.0878 12.277 9.6617ZM26.4014 11.7886C26.4014 13.3799 26.196 14.5426 25.7843 15.2808C25.373 16.0184 24.6418 16.3868 23.5921 16.3868C22.8832 16.3868 22.3588 16.1532 22.0182 15.6841C21.6765 15.2166 21.5065 14.4425 21.5065 13.3646L21.5067 5.57616H16.441V14.7268C16.441 15.493 16.5285 16.2303 16.6972 16.9402C16.8681 17.6496 17.1648 18.2738 17.5914 18.8123C18.0179 19.352 18.5764 19.7855 19.273 20.1113C19.9672 20.4368 20.8401 20.6001 21.8908 20.6001C22.968 20.6001 23.9322 20.3938 24.785 19.9824C25.6361 19.5717 26.3022 18.913 26.784 18.0042H26.827V20.2589H31.467V5.57616H26.4014V11.7886ZM47.5969 7.02373C47.1719 6.48461 46.611 6.05105 45.9159 5.72578C45.2201 5.39889 44.3488 5.23592 43.2986 5.23592C42.2213 5.23592 41.2555 5.44084 40.4034 5.85262C39.5522 6.26434 38.8857 6.93778 38.4033 7.87444H38.3619V5.57616H33.7648V20.2589H38.8304V14.046C38.8304 12.4571 39.0348 11.2999 39.4466 10.5766C39.8579 9.85333 40.5599 9.49186 41.5523 9.49186C42.2909 9.49186 42.8374 9.7328 43.192 10.2152C43.5469 10.698 43.7242 11.521 43.7242 12.6843V20.2589H48.7893V11.1088C48.7893 10.343 48.697 9.60639 48.5118 8.89495C48.3277 8.18599 48.0226 7.56291 47.5969 7.02373ZM59.9402 5.36331C58.8618 5.36331 57.9812 5.5693 57.3016 5.98058C56.6207 6.39174 56.0533 7.02373 55.5983 7.87444H55.5559V5.57616H50.9168V20.2589H56.0246V14.046C56.0246 12.5983 56.337 11.4994 56.961 10.7474C57.5848 9.99545 58.4932 9.61926 59.6854 9.61926C60.1667 9.61926 60.5439 9.64048 60.8139 9.68348C61.0819 9.72586 61.2881 9.76144 61.4297 9.79009L61.6855 5.53372C61.4297 5.47698 61.1531 5.43441 60.8559 5.40576C60.5571 5.37767 60.2521 5.36331 59.9402 5.36331ZM63.1754 3.74591H68.2401V0H63.1754V3.74591ZM63.1754 20.2589H68.2401V5.57616H63.1754V20.2589Z" fill="white"/>
</svg>
