<svg xmlns="http://www.w3.org/2000/svg" viewBox="0 0 566.93 117.97"><title>logo</title><path d="M526.66,83.88A22.34,22.34,0,0,1,531,71.51c2.58-3.4,6.47-5.1,11.64-5.1q8.75,0,12.38,5.1a20.77,20.77,0,0,1,3.64,12.37Zm58,11.16a71.73,71.73,0,0,0-2.19-18,39.35,39.35,0,0,0-7.28-14.91,36.83,36.83,0,0,0-13.11-10.31q-8-3.88-19.64-3.89a53.26,53.26,0,0,0-17.95,2.92,39.49,39.49,0,0,0-14.19,8.48,38,38,0,0,0-9.23,13.71,49.43,49.43,0,0,0-3.27,18.56,45.07,45.07,0,0,0,3.63,18.56A39.4,39.4,0,0,0,511.62,124a44,44,0,0,0,15.4,8.62,61.77,61.77,0,0,0,19.29,2.91,84.92,84.92,0,0,0,30.81-5.34V109.84a58,58,0,0,1-13.1,5,53.94,53.94,0,0,1-12.61,1.58q-10.68,0-17-3.76t-7.51-12.49h57.74ZM481.12,87.66a44.91,44.91,0,0,0-11.33-4L458.46,81.2a44,44,0,0,1-8.65-2.67q-3.54-1.59-3.54-5c0-2.44,1.35-4.1,4-5a29,29,0,0,1,9.15-1.34,64.61,64.61,0,0,1,14.5,1.71,48.07,48.07,0,0,1,12.3,4.38l2.2-20.71a67.16,67.16,0,0,0-11.09-3,93.07,93.07,0,0,0-19.62-1.83,64.77,64.77,0,0,0-14.5,1.59,38.51,38.51,0,0,0-12.31,5,26.17,26.17,0,0,0-8.53,8.64,23.77,23.77,0,0,0-3.17,12.56c0,5,1.09,9.1,3.29,12.18a22.36,22.36,0,0,0,8.41,7.2,54.87,54.87,0,0,0,10.84,4c3.83,1,7.43,1.9,10.85,2.8a36.48,36.48,0,0,1,8.41,3.17,5.7,5.7,0,0,1,3.28,5.24A4.37,4.37,0,0,1,463,113.5a10.42,10.42,0,0,1-3.18,2,12.84,12.84,0,0,1-4.14.85c-1.55.09-2.89.13-4,.13a69.11,69.11,0,0,1-16.82-2.07,92.89,92.89,0,0,1-13.41-4.27l-1.7,20.71a94.22,94.22,0,0,0,14.75,3.54,116.33,116.33,0,0,0,18.64,1.34,103.24,103.24,0,0,0,15.11-1.09,37.55,37.55,0,0,0,12.92-4.27,24.53,24.53,0,0,0,8.89-8.41q3.3-5.23,3.3-13.77,0-8.06-3.54-12.92a24.76,24.76,0,0,0-8.66-7.56ZM88,73a51.41,51.41,0,0,0-12.78-5.61q-6.84-2-12.8-3.77a45.2,45.2,0,0,1-9.87-4.15,7.54,7.54,0,0,1-3.9-6.94,8.88,8.88,0,0,1,1.82-5.85A11.47,11.47,0,0,1,55,43.43,21.53,21.53,0,0,1,60.73,42a49,49,0,0,1,5.73-.37A59.64,59.64,0,0,1,81.2,43.31a73.3,73.3,0,0,1,12.55,4.38l2-23.39a101.65,101.65,0,0,0-13.65-3.54,97.07,97.07,0,0,0-18.52-1.59,73.72,73.72,0,0,0-15.36,1.71,49.3,49.3,0,0,0-14.87,5.73A33.62,33.62,0,0,0,22.1,37.34Q17.72,44,17.72,54.28T21.61,70.6a30.63,30.63,0,0,0,9.87,9.75,54.65,54.65,0,0,0,12.8,5.73q6.82,2.07,12.8,4A34.3,34.3,0,0,1,67,95a9.5,9.5,0,0,1,3.89,8,8.79,8.79,0,0,1-1.58,5.49,10.09,10.09,0,0,1-4.14,3.16,20.23,20.23,0,0,1-5.85,1.46,61.42,61.42,0,0,1-7,.37,64.29,64.29,0,0,1-17.18-2.19A65.81,65.81,0,0,1,21.37,106L18.69,130.8a94.92,94.92,0,0,0,16.69,3.66,127.45,127.45,0,0,0,16.94,1.22,103.93,103.93,0,0,0,18.16-1.58,46.82,46.82,0,0,0,15.85-5.73,32.29,32.29,0,0,0,11.21-11.22q4.24-7.07,4.26-18,0-10.23-3.9-16.33A30.56,30.56,0,0,0,88,73Zm80.89,12.18q0,13.66-3.54,20t-12.55,6.33q-6.09,0-9-4t-2.93-13.29V49.64h-29V102a55,55,0,0,0,1.46,12.68,27.36,27.36,0,0,0,5.12,10.72,26.22,26.22,0,0,0,9.63,7.44q6,2.79,15,2.8a37.6,37.6,0,0,0,16.57-3.54,25.24,25.24,0,0,0,11.45-11.33h.24v12.91h26.57V49.64h-29ZM290.28,57.93a26.08,26.08,0,0,0-9.62-7.43q-6-2.8-15-2.81a37.62,37.62,0,0,0-16.58,3.54A25,25,0,0,0,237.64,62.8h-.24V49.64H211.07v84.08h29V98.15q0-13.65,3.53-19.87t12.06-6.21q6.34,0,9.39,4.14t3.05,14.14v43.37h29V81.33a50.07,50.07,0,0,0-1.59-12.68A28.64,28.64,0,0,0,290.28,57.93ZM361,48.42q-9.27,0-15.11,3.54A27.24,27.24,0,0,0,336.1,62.8h-.24V49.64H309.29v84.08h29.25V98.15q0-12.44,5.37-18.89t15.6-6.46a44.74,44.74,0,0,1,6.46.36c1.54.25,2.72.45,3.53.61L371,49.4a39.55,39.55,0,0,0-4.75-.73c-1.71-.16-3.46-.25-5.24-.25Zm18.52-9.26h29V17.71h-29Zm0,94.56h29V49.64h-29Z" transform="translate(-17.72 -17.71)" style="fill:#d41d0f;fill-rule:evenodd"/></svg>