<svg width="32" height="36" viewBox="0 0 32 36" fill="none" xmlns="http://www.w3.org/2000/svg">
<path d="M15.0175 17.045C15.0175 17.4942 15.3815 17.8559 15.8291 17.8559C16.2767 17.8559 16.6407 17.4919 16.6407 17.045C16.6415 16.0951 16.9789 15.1718 17.5915 14.4452C18.9541 12.8296 19.9754 11.0779 20.6222 9.23878C20.7095 8.99028 20.6716 8.71517 20.5196 8.5001C20.3668 8.28504 20.1206 8.15736 19.8569 8.15736H11.8006C11.5369 8.15736 11.2899 8.28504 11.1371 8.5001C10.9852 8.71517 10.9472 8.99028 11.0346 9.23878C11.6828 11.0779 12.7027 12.8296 14.0653 14.4452C14.6785 15.1718 15.0167 16.0959 15.0175 17.045Z" fill="#1A1A1A"/>
<path d="M16.6408 20.2984C16.6408 19.85 16.2767 19.4875 15.8291 19.4875C15.3815 19.4875 15.0175 19.8516 15.0175 20.2984C15.0167 21.4703 14.3168 22.6292 13.0469 23.5693C10.3308 25.5748 8.29796 27.7536 7.00451 30.0441C6.8624 30.2964 6.86468 30.6034 7.01135 30.8512C7.15574 31.1012 7.42325 31.2539 7.71203 31.2539H23.9477C24.2358 31.2539 24.5025 31.1012 24.6484 30.8512C24.7936 30.6034 24.7958 30.2964 24.6545 30.0441C23.3618 27.7536 21.3282 25.5748 18.6128 23.5693C17.3414 22.6292 16.6415 21.4703 16.6408 20.2984Z" fill="#1A1A1A"/>
<path d="M30.0342 32.4722H29.5486C28.9908 26.1546 25.2913 21.3046 22.4157 17.8597C25.2921 14.4156 28.99 9.5648 29.5501 3.24729H30.0357C30.9325 3.24729 31.659 2.52001 31.659 1.62327C31.659 0.726518 30.9325 0 30.0357 0H1.62327C0.726518 0 0 0.727278 0 1.62327C0 2.52001 0.726518 3.24729 1.62327 3.24729H2.10888C2.66744 9.56556 6.36539 14.4164 9.24182 17.8597C6.36615 21.3038 2.66745 26.1539 2.10812 32.4722H1.62327C0.726518 32.4722 0 33.1979 0 34.0947C0 34.9922 0.726518 35.7194 1.62327 35.7194H3.65311H28.0051H30.0357C30.9325 35.7194 31.659 34.9922 31.659 34.0947C31.659 33.1979 30.9317 32.4722 30.0342 32.4722ZM5.36301 32.4722C5.97325 26.7641 9.68412 22.3685 12.4572 19.084L12.6054 18.9085C13.1161 18.3043 13.1161 17.4197 12.6054 16.8148L12.458 16.64C9.68564 13.3547 5.97325 8.95912 5.36301 3.25033H26.2952C25.685 8.95912 21.9726 13.3547 19.2003 16.64L19.0536 16.8148C18.5429 17.4189 18.5429 18.3035 19.0536 18.9085L19.2018 19.084C21.9741 22.3685 25.685 26.7641 26.2952 32.4722H5.36301Z" fill="#1A1A1A"/>
</svg>
